<?xml version="1.0" encoding="utf-8"?>
<!-- Generator: Adobe Illustrator 16.0.0, SVG Export Plug-In . SVG Version: 6.00 Build 0)  -->
<!DOCTYPE svg PUBLIC "-//W3C//DTD SVG 1.1//EN" "http://www.w3.org/Graphics/SVG/1.1/DTD/svg11.dtd">
<svg version="1.1" id="Capa_1" xmlns="http://www.w3.org/2000/svg" xmlns:xlink="http://www.w3.org/1999/xlink" x="0px" y="0px"
	 width="500px" height="500px" viewBox="0 0 500 500" enable-background="new 0 0 500 500" xml:space="preserve">
<path fill="#6D6E70" d="M387.524,325.014c-13.791,0-25.026-11.216-25.026-25.008v-87.499c0-30.13-11.731-58.429-33.096-79.697
	c-13.163-13.115-28.957-22.566-46.221-27.86c2.746-5.217,4.331-11.15,4.331-17.464c0-20.659-16.845-37.502-37.503-37.502
	c-20.697,0-37.503,16.844-37.503,37.502c0,6.333,1.584,12.303,4.35,17.54c-45.877,14.345-79.354,57.627-79.354,108.568v86.412
	c0,13.792-11.216,25.008-25.008,25.008c-6.924,0-12.494,5.609-12.494,12.494v50.016c0,6.906,5.57,12.495,12.494,12.495h94.215
	c-0.325,2.042-0.478,4.14-0.478,6.257c0,24.131,19.629,43.74,43.778,43.74c24.13,0,43.759-19.609,43.759-43.74
	c0-2.117-0.19-4.215-0.477-6.257h94.232c6.887,0,12.476-5.589,12.476-12.495v-50.016C400,330.623,394.411,325.014,387.524,325.014
	 M250.01,74.992c6.867,0,12.475,5.599,12.475,12.495S256.877,99.99,250.01,99.99c-6.905,0-12.494-5.608-12.494-12.504
	S243.104,74.992,250.01,74.992 M268.761,406.275c0,10.32-8.411,18.751-18.751,18.751c-10.358,0-18.752-8.431-18.752-18.751
	c0-2.155,0.344-4.254,1.05-6.257h35.385C268.379,402.021,268.761,404.12,268.761,406.275 M375.012,375.011h-99.994h-50.035H124.97
	v-26.572c21.575-5.569,37.502-25.16,37.502-48.433v-86.412c0-48.671,39.125-88.425,87.194-88.605h0.344
	c23.291,0,45.228,9.07,61.767,25.533c16.577,16.548,25.714,38.542,25.714,61.986v87.499c0,23.272,15.966,42.863,37.521,48.433
	V375.011z"/>
</svg>
