<?xml version="1.0" encoding="utf-8"?>
<!-- Generator: Adobe Illustrator 16.0.0, SVG Export Plug-In . SVG Version: 6.00 Build 0)  -->
<!DOCTYPE svg PUBLIC "-//W3C//DTD SVG 1.1//EN" "http://www.w3.org/Graphics/SVG/1.1/DTD/svg11.dtd">
<svg version="1.1" id="Capa_1" xmlns="http://www.w3.org/2000/svg" xmlns:xlink="http://www.w3.org/1999/xlink" x="0px" y="0px"
	 width="500px" height="399.692px" viewBox="0 0 500 399.692" enable-background="new 0 0 500 399.692" xml:space="preserve">
<path fill="#808184" d="M162.893,272.318c-1.838,0-3.707,0.319-5.485,0.85c-10.073,3.251-20.587,5.349-31.632,5.349
	c-11.061,0-21.667-2.098-31.664-5.349c-1.763-0.53-3.616-0.85-5.47-0.85c-48.057,0-86.892,39.077-86.649,87.12
	c0.061,20.343,16.774,36.677,37.119,36.677h173.313c20.345,0,37.058-16.334,37.134-36.677
	C249.771,311.395,210.951,272.318,162.893,272.318 M125.775,247.568c40.977,0,74.267-33.261,74.267-74.269
	c0-41.007-33.29-74.282-74.267-74.282c-41.008,0-74.282,33.274-74.282,74.282C51.494,214.307,84.768,247.568,125.775,247.568
	 M459.99,0H162.893c-20.496,0-37.118,17.246-37.118,38.364v35.902c18.095,0,34.885,5.257,49.516,13.765V49.516h272.316v222.802
	h-49.531v-49.502h-99.002v49.502h-58.951c14.753,12.93,25.603,29.945,30.708,49.516H459.99c20.481,0,37.134-17.245,37.134-38.364
	V38.364C497.124,17.246,480.472,0,459.99,0"/>
</svg>
