<?xml version="1.0" encoding="iso-8859-1"?>
<!-- Generator: Adobe Illustrator 19.0.0, SVG Export Plug-In . SVG Version: 6.00 Build 0)  -->
<svg version="1.1" id="Capa_1" xmlns="http://www.w3.org/2000/svg" xmlns:xlink="http://www.w3.org/1999/xlink" x="0px" y="0px"
	 viewBox="0 0 477.864 477.864" style="enable-background:new 0 0 477.864 477.864;" xml:space="preserve">
<g>
	<g>
		<path d="M238.932,0C132.061,0,68.265,70.178,68.265,187.733c0,128.239,152.235,278.904,158.72,285.252
			c6.636,6.505,17.257,6.505,23.893,0c6.485-6.349,158.72-157.013,158.72-285.252C409.599,70.178,345.804,0,238.932,0z
			 M238.932,436.241c-35.294-37.649-136.533-153.856-136.533-248.508c0-98.987,48.486-153.6,136.533-153.6
			s136.533,54.613,136.533,153.6C375.465,282.249,274.209,398.575,238.932,436.241z"/>
	</g>
</g>
<g>
	<g>
		<path d="M238.932,68.267c-47.128,0-85.333,38.205-85.333,85.333s38.205,85.333,85.333,85.333s85.333-38.205,85.333-85.333
			C324.209,106.495,286.037,68.323,238.932,68.267z M238.932,204.8c-28.277,0-51.2-22.923-51.2-51.2s22.923-51.2,51.2-51.2
			s51.2,22.923,51.2,51.2S267.209,204.8,238.932,204.8z"/>
	</g>
</g>
<g>
</g>
<g>
</g>
<g>
</g>
<g>
</g>
<g>
</g>
<g>
</g>
<g>
</g>
<g>
</g>
<g>
</g>
<g>
</g>
<g>
</g>
<g>
</g>
<g>
</g>
<g>
</g>
<g>
</g>
</svg>
