<?xml version="1.0" encoding="utf-8"?>
<!-- Generator: Adobe Illustrator 16.0.0, SVG Export Plug-In . SVG Version: 6.00 Build 0)  -->
<!DOCTYPE svg PUBLIC "-//W3C//DTD SVG 1.1//EN" "http://www.w3.org/Graphics/SVG/1.1/DTD/svg11.dtd">
<svg version="1.1" id="Capa_1" xmlns="http://www.w3.org/2000/svg" xmlns:xlink="http://www.w3.org/1999/xlink" x="0px" y="0px"
	 width="500px" height="500px" viewBox="0 0 500 500" enable-background="new 0 0 500 500" xml:space="preserve">
<path d="M483.887,424.575l-93.462-93.48c-4.216-4.216-9.942-6.573-15.944-6.573h-15.283c25.889-33.087,41.263-74.717,41.263-119.993
	c0-107.73-87.293-195.024-195.024-195.024c-107.722,0-195.015,87.293-195.015,195.024c0,107.713,87.293,195.024,195.015,195.024
	c45.286,0,86.924-15.393,119.993-41.263v15.282c0,5.984,2.358,11.71,6.574,15.927l93.479,93.48c8.819,8.819,23.071,8.819,31.779,0
	l26.533-26.532C492.614,447.628,492.614,433.376,483.887,424.575 M205.436,324.521c-66.293,0-119.993-53.617-119.993-119.993
	c0-66.284,53.598-119.993,119.993-119.993c66.285,0,119.993,53.617,119.993,119.993
	C325.429,270.813,271.813,324.521,205.436,324.521"/>
</svg>
