<?xml version="1.0" encoding="utf-8"?>
<!-- Generator: Adobe Illustrator 16.0.0, SVG Export Plug-In . SVG Version: 6.00 Build 0)  -->
<!DOCTYPE svg PUBLIC "-//W3C//DTD SVG 1.1//EN" "http://www.w3.org/Graphics/SVG/1.1/DTD/svg11.dtd">
<svg version="1.1" id="Capa_1" xmlns="http://www.w3.org/2000/svg" xmlns:xlink="http://www.w3.org/1999/xlink" x="0px" y="0px"
	 width="500px" height="500px" viewBox="0 0 500 500" enable-background="new 0 0 500 500" xml:space="preserve">
<path d="M482.521,310.312l-42.948-24.81c4.349-23.399,4.349-47.375,0-70.742l42.948-24.832c4.935-2.816,7.166-8.653,5.543-14.094
	c-11.199-35.906-30.239-68.343-55.139-95.372c-3.83-4.124-10.095-5.115-14.917-2.31l-42.947,24.809
	c-18.05-15.525-38.779-27.524-61.291-35.4V18.08c0-5.656-3.943-10.602-9.486-11.796c-36.977-8.281-74.899-7.875-110.074,0
	c-5.543,1.194-9.464,6.14-9.464,11.796v49.607c-22.398,7.932-43.151,19.953-61.29,35.366L80.599,78.254
	c-4.913-2.817-11.086-1.916-14.917,2.298c-24.899,26.938-43.939,59.375-55.139,95.371c-1.712,5.442,0.609,11.3,5.566,14.117
	l42.926,24.809c-4.327,23.367-4.327,47.365,0,70.765l-42.926,24.787c-4.957,2.839-7.188,8.675-5.566,14.105
	c11.199,35.895,30.24,68.365,55.139,95.359c3.831,4.146,10.095,5.161,14.917,2.344l42.948-24.809
	c18.049,15.525,38.802,27.535,61.291,35.377v49.596c0,5.632,3.943,10.59,9.486,11.807c36.977,8.247,74.9,7.863,110.074,0
	c5.543-1.217,9.464-6.175,9.464-11.807v-49.596c22.421-7.954,43.15-19.942,61.29-35.377l42.948,24.809
	c4.935,2.817,11.086,1.916,14.917-2.344c24.899-26.904,43.962-59.352,55.161-95.359
	C489.688,318.965,487.456,313.105,482.521,310.312 M249.259,330.771c-44.458,0-80.646-36.188-80.646-80.646
	c0-44.458,36.188-80.646,80.646-80.646s80.646,36.188,80.646,80.646C329.905,294.584,293.717,330.771,249.259,330.771"/>
</svg>
